#!OML:ASF X:\2005_08_12_Meinard\c3d\meinard.ASF
:FULLY-SPECIFIED
:DEGREES
875
root 9.98473 16.8256 -1.16908 1.57255 -86.5373 -16.4328
lowerback 33.0967 0.642849 2.39712
upperback 5.18827 0.955699 -0.90834
thorax -11.1891 0.107866 -2.57855
lowerneck -10.8889 -9.7385 0.591162
upperneck -7.11299 -13.1748 8.79846
head 0.147977 -6.70879 2.17149
rclavicle -4.02539e-015 1.63003e-014
rhumerus -20.9863 -22.4165 -83.4296
rradius 24.2321
rwrist 10.6089
rhand -12.0587 0.761953
rfingers 7.12502
rthumb 14.0004 -28.7466
lclavicle -4.02539e-015 1.63003e-014
lhumerus 56.898 120.138 138.473
lradius 8.79134
lwrist -107.421
lhand -24.2391 -16.5852
lfingers 7.12502
lthumb 2.24647 13.3828
rfemur 28.5113 -5.26497 21.4128
rtibia 7.14781
rfoot -22.8784 -7.10386
rtoes -12.2915
lfemur -15.5204 3.72262 -16.5845
ltibia 37.6893
lfoot -11.4147 2.81946
ltoes -16.5847
876
root 9.9271 16.8165 -1.14811 0.721784 -86.6532 -15.5817
lowerback 33.0629 0.719359 2.2921
upperback 5.13039 1.01727 -0.942175
thorax -11.2392 0.139938 -2.58308
lowerneck -10.7377 -9.78977 0.636017
upperneck -7.26066 -13.2361 8.79853
head 0.0752758 -6.74952 2.17484
rclavicle -1.47101e-014 8.15017e-015
rhumerus -20.4426 -22.5254 -82.5784
rradius 24.0402
rwrist 9.55004
rhand -12.6934 1.05981
rfingers 7.12502
rthumb 13.3887 -28.49
lclavicle -1.47101e-014 8.15017e-015
lhumerus 55.5166 120.699 136.442
lradius 8.70247
lwrist -108.036
lhand -24.5724 -16.4003
lfingers 7.12502
lthumb 1.92454 13.5708
rfemur 29.185 -5.12068 21.295
rtibia 6.22882
rfoot -22.5902 -7.20575
rtoes -12.4504
lfemur -15.5854 3.89471 -16.6836
ltibia 37.356
lfoot -11.4449 3.0689
ltoes -16.1058
877
root 9.86592 16.8059 -1.12591 -0.669859 -86.7638 -14.2138
lowerback 33.0231 0.800626 2.14766
upperback 5.08608 1.06786 -0.990464
thorax -11.2731 0.168181 -2.57731
lowerneck -10.5098 -9.82228 0.737491
upperneck -7.44329 -13.2738 8.79632
head -0.0259042 -6.78278 2.17552
rclavicle 1.47598e-014 -3.97569e-016
rhumerus -19.8515 -22.4426 -81.7556
rradius 23.9407
rwrist 8.39433
rhand -13.427 1.2929
rfingers 7.12502
rthumb 12.6816 -28.3021
lclavicle 1.47598e-014 -3.97569e-016
lhumerus 54.1923 121.286 134.452
lradius 8.63804
lwrist -108.651
lhand -24.8711 -16.3083
lfingers 7.12502
lthumb 1.63604 13.6652
rfemur 29.9512 -4.97336 21.1365
rtibia 5.21192
rfoot -22.3055 -7.29102
rtoes -12.6303
lfemur -15.6197 4.0698 -16.8228
ltibia 37.0683
lfoot -11.4774 3.37658
ltoes -16.8822
878
root 9.8028 16.7948 -1.10341 -1.37908 -86.8548 -13.5438
lowerback 32.9977 0.870475 2.02563
upperback 5.03793 1.11369 -1.02604
thorax -11.317 0.193414 -2.56833
lowerneck -10.2004 -9.85534 0.858379
upperneck -7.67625 -13.3083 8.7966
head -0.157359 -6.81854 2.18099
rclavicle 9.59136e-015 -1.11319e-014
rhumerus -19.2129 -22.3885 -80.8985
rradius 23.8704
rwrist 7.44538
rhand -14.2246 1.49057
rfingers 7.12502
rthumb 11.9126 -28.1505
lclavicle 9.59136e-015 -1.11319e-014
lhumerus 52.943 121.921 132.536
lradius 8.56128
lwrist -109.275
lhand -25.1506 -16.2228
lfingers 7.12502
lthumb 1.36613 13.7525
rfemur 30.8019 -4.84768 21.0278
rtibia 4.04741
rfoot -21.9173 -7.4037
rtoes -12.8484
lfemur -15.633 4.23581 -16.9123
ltibia 36.8423
lfoot -11.5095 3.70313
ltoes -17.8542
879
root 9.73685 16.782 -1.08018 -3.02557 -86.9446 -11.9427
lowerback 32.966 0.960053 1.85061
upperback 4.99498 1.16347 -1.07806
thorax -11.3535 0.222206 -2.54981
lowerneck -9.83261 -9.88588 0.993819
upperneck -7.95522 -13.3355 8.81424
head -0.312565 -6.85422 2.19579
rclavicle 4.82053e-015 -2.78299e-015
rhumerus -18.5609 -22.3605 -80.0062
rradius 23.9375
rwrist 6.57291
rhand -14.918 1.55599
rfingers 7.12502
rthumb 11.2439 -28.1227
lclavicle 4.82053e-015 -2.78299e-015
lhumerus 51.7746 122.549 130.694
lradius 8.48599
lwrist -109.856
lhand -25.3328 -16.1928
lfingers 7.12502
lthumb 1.19012 13.7836
rfemur 31.8204 -4.71403 20.8633
rtibia 2.58093
rfoot -21.3741 -7.52965
rtoes -13.0384
lfemur -15.6149 4.44313 -17.0602
ltibia 36.6656
lfoot -11.5498 4.00047
ltoes -18.7713
880
root 9.66863 16.7687 -1.05608 -4.78303 -86.9914 -10.2739
lowerback 32.9644 1.04241 1.68022
upperback 4.96132 1.20395 -1.1347
thorax -11.3918 0.24608 -2.53523
lowerneck -9.46781 -9.92479 1.20133
upperneck -8.2076 -13.3807 8.78933
head -0.466291 -6.89937 2.18537
rclavicle -4.17448e-015 3.18055e-015
rhumerus -17.8861 -22.3987 -79.0685
rradius 24.0729
rwrist 5.7504
rhand -15.5554 1.50659
rfingers 7.12502
rthumb 10.629 -28.2046
lclavicle -4.17448e-015 3.18055e-015
lhumerus 50.6889 123.173 128.927
lradius 8.41177
lwrist -110.44
lhand -25.5013 -16.2188
lfingers 7.12502
lthumb 1.02737 13.7585
rfemur 33.4303 -4.60889 20.6814
rtibia 1.59028e-014
rfoot -20.2486 -7.68176
rtoes -13.2603
lfemur -15.5496 4.64137 -17.2103
ltibia 36.5492
lfoot -11.5494 4.24245
ltoes -19.7929
